<mxfile host="app.diagrams.net" modified="2024-03-21T04:22:31.660Z" agent="Mozilla/5.0 (Windows NT 10.0; Win64; x64) AppleWebKit/537.36 (KHTML, like Gecko) Chrome/121.0.0.0 Safari/537.36" etag="n5Th1oFf5cXoBCnoPmDt" version="23.1.5" type="github" pages="4">
  <diagram id="Z1Gi1GsYWeBpqn7ldP13" name="Page-1">
    <mxGraphModel dx="1593" dy="820" grid="1" gridSize="10" guides="1" tooltips="1" connect="1" arrows="1" fold="1" page="1" pageScale="1" pageWidth="850" pageHeight="1100" math="0" shadow="0">
      <root>
        <mxCell id="0" />
        <mxCell id="1" parent="0" />
        <mxCell id="Nwdr4uQjgiDyquE_GbSO-4" value="" style="edgeStyle=orthogonalEdgeStyle;rounded=0;orthogonalLoop=1;jettySize=auto;html=1;" parent="1" source="Nwdr4uQjgiDyquE_GbSO-2" target="Nwdr4uQjgiDyquE_GbSO-3" edge="1">
          <mxGeometry relative="1" as="geometry" />
        </mxCell>
        <mxCell id="Nwdr4uQjgiDyquE_GbSO-6" value="" style="edgeStyle=orthogonalEdgeStyle;rounded=0;orthogonalLoop=1;jettySize=auto;html=1;" parent="1" source="Nwdr4uQjgiDyquE_GbSO-2" target="Nwdr4uQjgiDyquE_GbSO-5" edge="1">
          <mxGeometry relative="1" as="geometry" />
        </mxCell>
        <mxCell id="Nwdr4uQjgiDyquE_GbSO-2" value="Check C drive capacity" style="rhombus;whiteSpace=wrap;html=1;" parent="1" vertex="1">
          <mxGeometry x="130" y="330" width="150" height="140" as="geometry" />
        </mxCell>
        <mxCell id="Nwdr4uQjgiDyquE_GbSO-12" value="" style="edgeStyle=orthogonalEdgeStyle;rounded=0;orthogonalLoop=1;jettySize=auto;html=1;" parent="1" source="Nwdr4uQjgiDyquE_GbSO-3" target="Nwdr4uQjgiDyquE_GbSO-11" edge="1">
          <mxGeometry relative="1" as="geometry" />
        </mxCell>
        <mxCell id="Nwdr4uQjgiDyquE_GbSO-15" value="" style="edgeStyle=orthogonalEdgeStyle;rounded=0;orthogonalLoop=1;jettySize=auto;html=1;" parent="1" source="Nwdr4uQjgiDyquE_GbSO-3" target="Nwdr4uQjgiDyquE_GbSO-14" edge="1">
          <mxGeometry relative="1" as="geometry" />
        </mxCell>
        <mxCell id="Nwdr4uQjgiDyquE_GbSO-3" value="Cek Account Unknown" style="rhombus;whiteSpace=wrap;html=1;" parent="1" vertex="1">
          <mxGeometry x="127.5" y="580" width="155" height="120" as="geometry" />
        </mxCell>
        <mxCell id="Nwdr4uQjgiDyquE_GbSO-8" value="" style="edgeStyle=orthogonalEdgeStyle;rounded=0;orthogonalLoop=1;jettySize=auto;html=1;" parent="1" source="Nwdr4uQjgiDyquE_GbSO-5" target="Nwdr4uQjgiDyquE_GbSO-7" edge="1">
          <mxGeometry relative="1" as="geometry" />
        </mxCell>
        <mxCell id="Nwdr4uQjgiDyquE_GbSO-5" value="ask for C drive clearance to region PIC" style="whiteSpace=wrap;html=1;" parent="1" vertex="1">
          <mxGeometry x="375" y="370" width="120" height="60" as="geometry" />
        </mxCell>
        <mxCell id="Nwdr4uQjgiDyquE_GbSO-7" value="End" style="whiteSpace=wrap;html=1;" parent="1" vertex="1">
          <mxGeometry x="575" y="370" width="120" height="60" as="geometry" />
        </mxCell>
        <mxCell id="Nwdr4uQjgiDyquE_GbSO-9" value="&amp;lt;30GB" style="text;html=1;strokeColor=none;fillColor=none;align=center;verticalAlign=middle;whiteSpace=wrap;rounded=0;" parent="1" vertex="1">
          <mxGeometry x="290" y="370" width="60" height="30" as="geometry" />
        </mxCell>
        <mxCell id="Nwdr4uQjgiDyquE_GbSO-10" value="&amp;gt;= 30GB" style="text;html=1;strokeColor=none;fillColor=none;align=center;verticalAlign=middle;whiteSpace=wrap;rounded=0;" parent="1" vertex="1">
          <mxGeometry x="210" y="510" width="60" height="30" as="geometry" />
        </mxCell>
        <mxCell id="Nwdr4uQjgiDyquE_GbSO-18" style="edgeStyle=orthogonalEdgeStyle;rounded=0;orthogonalLoop=1;jettySize=auto;html=1;entryX=0.5;entryY=0;entryDx=0;entryDy=0;" parent="1" source="Nwdr4uQjgiDyquE_GbSO-11" target="Nwdr4uQjgiDyquE_GbSO-14" edge="1">
          <mxGeometry relative="1" as="geometry">
            <Array as="points">
              <mxPoint x="455" y="780" />
            </Array>
          </mxGeometry>
        </mxCell>
        <mxCell id="Nwdr4uQjgiDyquE_GbSO-11" value="Deletion of account unknown" style="whiteSpace=wrap;html=1;" parent="1" vertex="1">
          <mxGeometry x="380" y="605" width="150" height="70" as="geometry" />
        </mxCell>
        <mxCell id="Nwdr4uQjgiDyquE_GbSO-20" value="" style="edgeStyle=orthogonalEdgeStyle;rounded=0;orthogonalLoop=1;jettySize=auto;html=1;" parent="1" source="Nwdr4uQjgiDyquE_GbSO-14" target="Nwdr4uQjgiDyquE_GbSO-19" edge="1">
          <mxGeometry relative="1" as="geometry" />
        </mxCell>
        <mxCell id="Nwdr4uQjgiDyquE_GbSO-25" value="" style="edgeStyle=orthogonalEdgeStyle;rounded=0;orthogonalLoop=1;jettySize=auto;html=1;" parent="1" source="Nwdr4uQjgiDyquE_GbSO-14" target="Nwdr4uQjgiDyquE_GbSO-24" edge="1">
          <mxGeometry relative="1" as="geometry" />
        </mxCell>
        <mxCell id="Nwdr4uQjgiDyquE_GbSO-14" value="Check boot drive format" style="rhombus;whiteSpace=wrap;html=1;" parent="1" vertex="1">
          <mxGeometry x="127.5" y="820" width="155" height="120" as="geometry" />
        </mxCell>
        <mxCell id="Nwdr4uQjgiDyquE_GbSO-16" value="Exist" style="text;html=1;strokeColor=none;fillColor=none;align=center;verticalAlign=middle;whiteSpace=wrap;rounded=0;" parent="1" vertex="1">
          <mxGeometry x="290" y="620" width="60" height="30" as="geometry" />
        </mxCell>
        <mxCell id="Nwdr4uQjgiDyquE_GbSO-17" value="Not exist" style="text;html=1;strokeColor=none;fillColor=none;align=center;verticalAlign=middle;whiteSpace=wrap;rounded=0;" parent="1" vertex="1">
          <mxGeometry x="210" y="720" width="60" height="30" as="geometry" />
        </mxCell>
        <mxCell id="Nwdr4uQjgiDyquE_GbSO-19" value="End" style="whiteSpace=wrap;html=1;" parent="1" vertex="1">
          <mxGeometry x="470" y="850" width="120" height="60" as="geometry" />
        </mxCell>
        <mxCell id="Nwdr4uQjgiDyquE_GbSO-21" value="Not GPT" style="text;html=1;strokeColor=none;fillColor=none;align=center;verticalAlign=middle;whiteSpace=wrap;rounded=0;" parent="1" vertex="1">
          <mxGeometry x="330" y="850" width="90" height="30" as="geometry" />
        </mxCell>
        <mxCell id="Nwdr4uQjgiDyquE_GbSO-30" value="" style="edgeStyle=orthogonalEdgeStyle;rounded=0;orthogonalLoop=1;jettySize=auto;html=1;" parent="1" source="Nwdr4uQjgiDyquE_GbSO-24" target="Nwdr4uQjgiDyquE_GbSO-29" edge="1">
          <mxGeometry relative="1" as="geometry" />
        </mxCell>
        <mxCell id="Nwdr4uQjgiDyquE_GbSO-24" value="Stoppoing the security tool" style="whiteSpace=wrap;html=1;" parent="1" vertex="1">
          <mxGeometry x="145" y="1010" width="120" height="60" as="geometry" />
        </mxCell>
        <mxCell id="Nwdr4uQjgiDyquE_GbSO-28" value="GPT" style="text;html=1;strokeColor=none;fillColor=none;align=center;verticalAlign=middle;whiteSpace=wrap;rounded=0;" parent="1" vertex="1">
          <mxGeometry x="180" y="930" width="90" height="30" as="geometry" />
        </mxCell>
        <mxCell id="Nwdr4uQjgiDyquE_GbSO-32" value="" style="edgeStyle=orthogonalEdgeStyle;rounded=0;orthogonalLoop=1;jettySize=auto;html=1;" parent="1" source="Nwdr4uQjgiDyquE_GbSO-29" target="Nwdr4uQjgiDyquE_GbSO-31" edge="1">
          <mxGeometry relative="1" as="geometry" />
        </mxCell>
        <mxCell id="Nwdr4uQjgiDyquE_GbSO-34" value="" style="edgeStyle=orthogonalEdgeStyle;rounded=0;orthogonalLoop=1;jettySize=auto;html=1;" parent="1" source="Nwdr4uQjgiDyquE_GbSO-29" target="Nwdr4uQjgiDyquE_GbSO-33" edge="1">
          <mxGeometry relative="1" as="geometry" />
        </mxCell>
        <mxCell id="Nwdr4uQjgiDyquE_GbSO-29" value="Check the integrity of the source" style="rhombus;whiteSpace=wrap;html=1;" parent="1" vertex="1">
          <mxGeometry x="122.5" y="1170" width="165" height="130" as="geometry" />
        </mxCell>
        <mxCell id="Nwdr4uQjgiDyquE_GbSO-45" value="" style="edgeStyle=orthogonalEdgeStyle;rounded=0;orthogonalLoop=1;jettySize=auto;html=1;entryX=0.5;entryY=0;entryDx=0;entryDy=0;" parent="1" source="Nwdr4uQjgiDyquE_GbSO-31" target="Nwdr4uQjgiDyquE_GbSO-33" edge="1">
          <mxGeometry relative="1" as="geometry">
            <mxPoint x="450" y="1360" as="targetPoint" />
            <Array as="points">
              <mxPoint x="450" y="1370" />
              <mxPoint x="205" y="1370" />
            </Array>
          </mxGeometry>
        </mxCell>
        <mxCell id="Nwdr4uQjgiDyquE_GbSO-31" value="Fetch source from local server" style="whiteSpace=wrap;html=1;" parent="1" vertex="1">
          <mxGeometry x="390" y="1205" width="120" height="60" as="geometry" />
        </mxCell>
        <mxCell id="Nwdr4uQjgiDyquE_GbSO-36" value="" style="edgeStyle=orthogonalEdgeStyle;rounded=0;orthogonalLoop=1;jettySize=auto;html=1;" parent="1" source="Nwdr4uQjgiDyquE_GbSO-33" target="Nwdr4uQjgiDyquE_GbSO-35" edge="1">
          <mxGeometry relative="1" as="geometry" />
        </mxCell>
        <mxCell id="Nwdr4uQjgiDyquE_GbSO-43" value="" style="edgeStyle=orthogonalEdgeStyle;rounded=0;orthogonalLoop=1;jettySize=auto;html=1;" parent="1" source="Nwdr4uQjgiDyquE_GbSO-33" target="Nwdr4uQjgiDyquE_GbSO-42" edge="1">
          <mxGeometry relative="1" as="geometry" />
        </mxCell>
        <mxCell id="Nwdr4uQjgiDyquE_GbSO-33" value="Terminate all system process named &quot;setup&quot;" style="rhombus;whiteSpace=wrap;html=1;" parent="1" vertex="1">
          <mxGeometry x="111.25" y="1380" width="187.5" height="150" as="geometry" />
        </mxCell>
        <mxCell id="Nwdr4uQjgiDyquE_GbSO-47" value="" style="edgeStyle=orthogonalEdgeStyle;rounded=0;orthogonalLoop=1;jettySize=auto;html=1;" parent="1" source="Nwdr4uQjgiDyquE_GbSO-35" edge="1">
          <mxGeometry relative="1" as="geometry">
            <mxPoint x="200" y="1650" as="targetPoint" />
            <Array as="points">
              <mxPoint x="480" y="1550" />
              <mxPoint x="310" y="1550" />
              <mxPoint x="310" y="1650" />
            </Array>
          </mxGeometry>
        </mxCell>
        <mxCell id="Nwdr4uQjgiDyquE_GbSO-35" value="Terminate" style="whiteSpace=wrap;html=1;" parent="1" vertex="1">
          <mxGeometry x="425" y="1425" width="120" height="60" as="geometry" />
        </mxCell>
        <mxCell id="Nwdr4uQjgiDyquE_GbSO-37" value="Not intact" style="text;html=1;strokeColor=none;fillColor=none;align=center;verticalAlign=middle;whiteSpace=wrap;rounded=0;" parent="1" vertex="1">
          <mxGeometry x="285" y="1210" width="90" height="30" as="geometry" />
        </mxCell>
        <mxCell id="Nwdr4uQjgiDyquE_GbSO-38" value="Intact" style="text;html=1;strokeColor=none;fillColor=none;align=center;verticalAlign=middle;whiteSpace=wrap;rounded=0;" parent="1" vertex="1">
          <mxGeometry x="180" y="1320" width="90" height="30" as="geometry" />
        </mxCell>
        <mxCell id="Nwdr4uQjgiDyquE_GbSO-39" value="Exist" style="text;html=1;strokeColor=none;fillColor=none;align=center;verticalAlign=middle;whiteSpace=wrap;rounded=0;" parent="1" vertex="1">
          <mxGeometry x="305" y="1431" width="90" height="30" as="geometry" />
        </mxCell>
        <mxCell id="Nwdr4uQjgiDyquE_GbSO-42" value="Run the update" style="whiteSpace=wrap;html=1;" parent="1" vertex="1">
          <mxGeometry x="145" y="1655" width="120" height="60" as="geometry" />
        </mxCell>
        <mxCell id="Nwdr4uQjgiDyquE_GbSO-48" value="Not exist" style="text;html=1;strokeColor=none;fillColor=none;align=center;verticalAlign=middle;whiteSpace=wrap;rounded=0;" parent="1" vertex="1">
          <mxGeometry x="188" y="1570" width="90" height="30" as="geometry" />
        </mxCell>
        <mxCell id="Nwdr4uQjgiDyquE_GbSO-51" value="" style="edgeStyle=orthogonalEdgeStyle;rounded=0;orthogonalLoop=1;jettySize=auto;html=1;" parent="1" source="Nwdr4uQjgiDyquE_GbSO-49" target="Nwdr4uQjgiDyquE_GbSO-50" edge="1">
          <mxGeometry relative="1" as="geometry" />
        </mxCell>
        <mxCell id="Nwdr4uQjgiDyquE_GbSO-49" value="Idea Creation" style="rounded=0;whiteSpace=wrap;html=1;" parent="1" vertex="1">
          <mxGeometry x="122.5" y="2060" width="120" height="60" as="geometry" />
        </mxCell>
        <mxCell id="Nwdr4uQjgiDyquE_GbSO-53" value="" style="edgeStyle=orthogonalEdgeStyle;rounded=0;orthogonalLoop=1;jettySize=auto;html=1;" parent="1" source="Nwdr4uQjgiDyquE_GbSO-50" target="Nwdr4uQjgiDyquE_GbSO-52" edge="1">
          <mxGeometry relative="1" as="geometry" />
        </mxCell>
        <mxCell id="Nwdr4uQjgiDyquE_GbSO-50" value="Consult with team leader and manager" style="whiteSpace=wrap;html=1;rounded=0;" parent="1" vertex="1">
          <mxGeometry x="300" y="2060" width="120" height="60" as="geometry" />
        </mxCell>
        <mxCell id="Nwdr4uQjgiDyquE_GbSO-55" value="" style="edgeStyle=orthogonalEdgeStyle;rounded=0;orthogonalLoop=1;jettySize=auto;html=1;" parent="1" source="Nwdr4uQjgiDyquE_GbSO-52" target="Nwdr4uQjgiDyquE_GbSO-54" edge="1">
          <mxGeometry relative="1" as="geometry" />
        </mxCell>
        <mxCell id="Nwdr4uQjgiDyquE_GbSO-57" value="" style="edgeStyle=orthogonalEdgeStyle;rounded=0;orthogonalLoop=1;jettySize=auto;html=1;" parent="1" source="Nwdr4uQjgiDyquE_GbSO-52" target="Nwdr4uQjgiDyquE_GbSO-56" edge="1">
          <mxGeometry relative="1" as="geometry" />
        </mxCell>
        <mxCell id="Nwdr4uQjgiDyquE_GbSO-52" value="Approval" style="rhombus;whiteSpace=wrap;html=1;rounded=0;" parent="1" vertex="1">
          <mxGeometry x="460" y="2050" width="80" height="80" as="geometry" />
        </mxCell>
        <mxCell id="Nwdr4uQjgiDyquE_GbSO-61" value="" style="edgeStyle=orthogonalEdgeStyle;rounded=0;orthogonalLoop=1;jettySize=auto;html=1;entryX=0.5;entryY=1;entryDx=0;entryDy=0;" parent="1" source="Nwdr4uQjgiDyquE_GbSO-54" target="Nwdr4uQjgiDyquE_GbSO-56" edge="1">
          <mxGeometry relative="1" as="geometry">
            <mxPoint x="670" y="2250" as="targetPoint" />
          </mxGeometry>
        </mxCell>
        <mxCell id="Nwdr4uQjgiDyquE_GbSO-54" value="Suggestion/Critics" style="whiteSpace=wrap;html=1;rounded=0;" parent="1" vertex="1">
          <mxGeometry x="440" y="2220" width="120" height="60" as="geometry" />
        </mxCell>
        <mxCell id="Nwdr4uQjgiDyquE_GbSO-59" value="" style="edgeStyle=orthogonalEdgeStyle;rounded=0;orthogonalLoop=1;jettySize=auto;html=1;" parent="1" source="Nwdr4uQjgiDyquE_GbSO-56" target="Nwdr4uQjgiDyquE_GbSO-58" edge="1">
          <mxGeometry relative="1" as="geometry" />
        </mxCell>
        <mxCell id="Nwdr4uQjgiDyquE_GbSO-56" value="Implementation&lt;br&gt;with team" style="whiteSpace=wrap;html=1;rounded=0;" parent="1" vertex="1">
          <mxGeometry x="600" y="2060" width="120" height="60" as="geometry" />
        </mxCell>
        <mxCell id="Nwdr4uQjgiDyquE_GbSO-66" value="" style="edgeStyle=orthogonalEdgeStyle;rounded=0;orthogonalLoop=1;jettySize=auto;html=1;entryX=0.5;entryY=0;entryDx=0;entryDy=0;" parent="1" source="Nwdr4uQjgiDyquE_GbSO-58" target="Nwdr4uQjgiDyquE_GbSO-56" edge="1">
          <mxGeometry relative="1" as="geometry">
            <mxPoint x="860" y="1960" as="targetPoint" />
            <Array as="points">
              <mxPoint x="860" y="1960" />
              <mxPoint x="660" y="1960" />
            </Array>
          </mxGeometry>
        </mxCell>
        <mxCell id="Nwdr4uQjgiDyquE_GbSO-68" value="" style="edgeStyle=orthogonalEdgeStyle;rounded=0;orthogonalLoop=1;jettySize=auto;html=1;" parent="1" source="Nwdr4uQjgiDyquE_GbSO-58" target="Nwdr4uQjgiDyquE_GbSO-67" edge="1">
          <mxGeometry relative="1" as="geometry" />
        </mxCell>
        <mxCell id="Nwdr4uQjgiDyquE_GbSO-58" value="Testing" style="rhombus;whiteSpace=wrap;html=1;rounded=0;" parent="1" vertex="1">
          <mxGeometry x="820" y="2050" width="80" height="80" as="geometry" />
        </mxCell>
        <mxCell id="Nwdr4uQjgiDyquE_GbSO-63" value="Yes" style="text;html=1;strokeColor=none;fillColor=none;align=center;verticalAlign=middle;whiteSpace=wrap;rounded=0;" parent="1" vertex="1">
          <mxGeometry x="530" y="2070" width="60" height="30" as="geometry" />
        </mxCell>
        <mxCell id="Nwdr4uQjgiDyquE_GbSO-64" value="No" style="text;html=1;strokeColor=none;fillColor=none;align=center;verticalAlign=middle;whiteSpace=wrap;rounded=0;" parent="1" vertex="1">
          <mxGeometry x="480" y="2150" width="60" height="30" as="geometry" />
        </mxCell>
        <mxCell id="Nwdr4uQjgiDyquE_GbSO-67" value="Release" style="whiteSpace=wrap;html=1;rounded=0;" parent="1" vertex="1">
          <mxGeometry x="960" y="2060" width="120" height="60" as="geometry" />
        </mxCell>
        <mxCell id="Nwdr4uQjgiDyquE_GbSO-69" value="Yes" style="text;html=1;strokeColor=none;fillColor=none;align=center;verticalAlign=middle;whiteSpace=wrap;rounded=0;" parent="1" vertex="1">
          <mxGeometry x="893" y="2066" width="60" height="30" as="geometry" />
        </mxCell>
        <mxCell id="Nwdr4uQjgiDyquE_GbSO-71" value="No" style="text;html=1;strokeColor=none;fillColor=none;align=center;verticalAlign=middle;whiteSpace=wrap;rounded=0;" parent="1" vertex="1">
          <mxGeometry x="815" y="2001" width="60" height="30" as="geometry" />
        </mxCell>
        <mxCell id="Nwdr4uQjgiDyquE_GbSO-75" value="" style="edgeStyle=orthogonalEdgeStyle;rounded=0;orthogonalLoop=1;jettySize=auto;html=1;" parent="1" source="Nwdr4uQjgiDyquE_GbSO-73" target="Nwdr4uQjgiDyquE_GbSO-74" edge="1">
          <mxGeometry relative="1" as="geometry" />
        </mxCell>
        <mxCell id="Nwdr4uQjgiDyquE_GbSO-73" value="Start" style="rounded=0;whiteSpace=wrap;html=1;" parent="1" vertex="1">
          <mxGeometry x="173" y="2310" width="120" height="60" as="geometry" />
        </mxCell>
        <mxCell id="Nwdr4uQjgiDyquE_GbSO-77" value="" style="edgeStyle=orthogonalEdgeStyle;rounded=0;orthogonalLoop=1;jettySize=auto;html=1;" parent="1" source="Nwdr4uQjgiDyquE_GbSO-74" target="Nwdr4uQjgiDyquE_GbSO-76" edge="1">
          <mxGeometry relative="1" as="geometry" />
        </mxCell>
        <mxCell id="Nwdr4uQjgiDyquE_GbSO-74" value="Enter Region" style="rounded=0;whiteSpace=wrap;html=1;" parent="1" vertex="1">
          <mxGeometry x="173" y="2450" width="120" height="60" as="geometry" />
        </mxCell>
        <mxCell id="Nwdr4uQjgiDyquE_GbSO-79" value="" style="edgeStyle=orthogonalEdgeStyle;rounded=0;orthogonalLoop=1;jettySize=auto;html=1;" parent="1" source="Nwdr4uQjgiDyquE_GbSO-76" target="Nwdr4uQjgiDyquE_GbSO-78" edge="1">
          <mxGeometry relative="1" as="geometry" />
        </mxCell>
        <mxCell id="Nwdr4uQjgiDyquE_GbSO-76" value="Enter Branch" style="rounded=0;whiteSpace=wrap;html=1;" parent="1" vertex="1">
          <mxGeometry x="173" y="2610" width="120" height="60" as="geometry" />
        </mxCell>
        <mxCell id="Nwdr4uQjgiDyquE_GbSO-81" value="" style="edgeStyle=orthogonalEdgeStyle;rounded=0;orthogonalLoop=1;jettySize=auto;html=1;" parent="1" source="Nwdr4uQjgiDyquE_GbSO-78" target="Nwdr4uQjgiDyquE_GbSO-80" edge="1">
          <mxGeometry relative="1" as="geometry" />
        </mxCell>
        <mxCell id="Nwdr4uQjgiDyquE_GbSO-78" value="Enter Device IP Address" style="rounded=0;whiteSpace=wrap;html=1;" parent="1" vertex="1">
          <mxGeometry x="173" y="2800" width="120" height="60" as="geometry" />
        </mxCell>
        <mxCell id="Nwdr4uQjgiDyquE_GbSO-83" value="" style="edgeStyle=orthogonalEdgeStyle;rounded=0;orthogonalLoop=1;jettySize=auto;html=1;" parent="1" source="Nwdr4uQjgiDyquE_GbSO-80" target="Nwdr4uQjgiDyquE_GbSO-82" edge="1">
          <mxGeometry relative="1" as="geometry" />
        </mxCell>
        <mxCell id="Nwdr4uQjgiDyquE_GbSO-80" value="Enter Device Name" style="whiteSpace=wrap;html=1;rounded=0;" parent="1" vertex="1">
          <mxGeometry x="373" y="2800" width="120" height="60" as="geometry" />
        </mxCell>
        <mxCell id="Nwdr4uQjgiDyquE_GbSO-85" value="" style="edgeStyle=orthogonalEdgeStyle;rounded=0;orthogonalLoop=1;jettySize=auto;html=1;" parent="1" source="Nwdr4uQjgiDyquE_GbSO-82" target="Nwdr4uQjgiDyquE_GbSO-84" edge="1">
          <mxGeometry relative="1" as="geometry" />
        </mxCell>
        <mxCell id="Nwdr4uQjgiDyquE_GbSO-82" value="Enter Device Serial Number" style="whiteSpace=wrap;html=1;rounded=0;" parent="1" vertex="1">
          <mxGeometry x="373" y="2660" width="120" height="60" as="geometry" />
        </mxCell>
        <mxCell id="Nwdr4uQjgiDyquE_GbSO-87" value="" style="edgeStyle=orthogonalEdgeStyle;rounded=0;orthogonalLoop=1;jettySize=auto;html=1;" parent="1" source="Nwdr4uQjgiDyquE_GbSO-84" target="Nwdr4uQjgiDyquE_GbSO-86" edge="1">
          <mxGeometry relative="1" as="geometry" />
        </mxCell>
        <mxCell id="Nwdr4uQjgiDyquE_GbSO-84" value="Enter The year of device purchased" style="whiteSpace=wrap;html=1;rounded=0;" parent="1" vertex="1">
          <mxGeometry x="373" y="2520" width="120" height="60" as="geometry" />
        </mxCell>
        <mxCell id="Nwdr4uQjgiDyquE_GbSO-89" value="" style="edgeStyle=orthogonalEdgeStyle;rounded=0;orthogonalLoop=1;jettySize=auto;html=1;" parent="1" source="Nwdr4uQjgiDyquE_GbSO-86" target="Nwdr4uQjgiDyquE_GbSO-88" edge="1">
          <mxGeometry relative="1" as="geometry" />
        </mxCell>
        <mxCell id="Nwdr4uQjgiDyquE_GbSO-86" value="Enter the fix being done from our team" style="whiteSpace=wrap;html=1;rounded=0;" parent="1" vertex="1">
          <mxGeometry x="373" y="2380" width="120" height="60" as="geometry" />
        </mxCell>
        <mxCell id="Nwdr4uQjgiDyquE_GbSO-91" value="" style="edgeStyle=orthogonalEdgeStyle;rounded=0;orthogonalLoop=1;jettySize=auto;html=1;" parent="1" source="Nwdr4uQjgiDyquE_GbSO-88" target="Nwdr4uQjgiDyquE_GbSO-90" edge="1">
          <mxGeometry relative="1" as="geometry" />
        </mxCell>
        <mxCell id="Nwdr4uQjgiDyquE_GbSO-88" value="Enter date of the fixation date" style="whiteSpace=wrap;html=1;rounded=0;" parent="1" vertex="1">
          <mxGeometry x="573" y="2380" width="120" height="60" as="geometry" />
        </mxCell>
        <mxCell id="Nwdr4uQjgiDyquE_GbSO-93" value="" style="edgeStyle=orthogonalEdgeStyle;rounded=0;orthogonalLoop=1;jettySize=auto;html=1;" parent="1" source="Nwdr4uQjgiDyquE_GbSO-90" target="Nwdr4uQjgiDyquE_GbSO-92" edge="1">
          <mxGeometry relative="1" as="geometry" />
        </mxCell>
        <mxCell id="Nwdr4uQjgiDyquE_GbSO-90" value="Generate QR" style="whiteSpace=wrap;html=1;rounded=0;" parent="1" vertex="1">
          <mxGeometry x="573" y="2520" width="120" height="60" as="geometry" />
        </mxCell>
        <mxCell id="Nwdr4uQjgiDyquE_GbSO-95" value="" style="edgeStyle=orthogonalEdgeStyle;rounded=0;orthogonalLoop=1;jettySize=auto;html=1;" parent="1" source="Nwdr4uQjgiDyquE_GbSO-92" target="Nwdr4uQjgiDyquE_GbSO-94" edge="1">
          <mxGeometry relative="1" as="geometry" />
        </mxCell>
        <mxCell id="Nwdr4uQjgiDyquE_GbSO-101" value="" style="edgeStyle=orthogonalEdgeStyle;rounded=0;orthogonalLoop=1;jettySize=auto;html=1;entryX=1;entryY=0.5;entryDx=0;entryDy=0;" parent="1" source="Nwdr4uQjgiDyquE_GbSO-92" target="Nwdr4uQjgiDyquE_GbSO-73" edge="1">
          <mxGeometry relative="1" as="geometry">
            <mxPoint x="783" y="2710" as="targetPoint" />
            <Array as="points">
              <mxPoint x="790" y="2710" />
              <mxPoint x="790" y="2340" />
            </Array>
          </mxGeometry>
        </mxCell>
        <mxCell id="Nwdr4uQjgiDyquE_GbSO-92" value="Make another one?" style="rhombus;whiteSpace=wrap;html=1;rounded=0;" parent="1" vertex="1">
          <mxGeometry x="568" y="2650" width="130" height="120" as="geometry" />
        </mxCell>
        <mxCell id="Nwdr4uQjgiDyquE_GbSO-94" value="End" style="rounded=0;whiteSpace=wrap;html=1;" parent="1" vertex="1">
          <mxGeometry x="573" y="2880" width="120" height="60" as="geometry" />
        </mxCell>
        <mxCell id="Nwdr4uQjgiDyquE_GbSO-96" value="No" style="text;html=1;strokeColor=none;fillColor=none;align=center;verticalAlign=middle;whiteSpace=wrap;rounded=0;" parent="1" vertex="1">
          <mxGeometry x="620" y="2810" width="60" height="30" as="geometry" />
        </mxCell>
        <mxCell id="Nwdr4uQjgiDyquE_GbSO-99" value="Yes" style="text;html=1;strokeColor=none;fillColor=none;align=center;verticalAlign=middle;whiteSpace=wrap;rounded=0;" parent="1" vertex="1">
          <mxGeometry x="708" y="2686" width="60" height="30" as="geometry" />
        </mxCell>
      </root>
    </mxGraphModel>
  </diagram>
  <diagram id="yObraj4V7G8iRsYc0JF1" name="Page-2">
    <mxGraphModel dx="1038" dy="539" grid="1" gridSize="10" guides="1" tooltips="1" connect="1" arrows="1" fold="1" page="1" pageScale="1" pageWidth="850" pageHeight="1100" math="0" shadow="0">
      <root>
        <mxCell id="0" />
        <mxCell id="1" parent="0" />
        <mxCell id="YQj_U9nsR10SsdIa9tUd-1" value="" style="rounded=0;whiteSpace=wrap;html=1;" vertex="1" parent="1">
          <mxGeometry x="160" y="60" width="500" height="290" as="geometry" />
        </mxCell>
        <mxCell id="e2qPV19CDPTr4Dl-JJZj-1" value="Buyer" style="swimlane;fontStyle=1;align=center;verticalAlign=top;childLayout=stackLayout;horizontal=1;startSize=26;horizontalStack=0;resizeParent=1;resizeParentMax=0;resizeLast=0;collapsible=1;marginBottom=0;" vertex="1" parent="1">
          <mxGeometry x="200" y="112" width="160" height="138" as="geometry">
            <mxRectangle x="340" y="230" width="70" height="26" as="alternateBounds" />
          </mxGeometry>
        </mxCell>
        <mxCell id="e2qPV19CDPTr4Dl-JJZj-5" value="+ name: string" style="text;strokeColor=none;fillColor=none;align=left;verticalAlign=top;spacingLeft=4;spacingRight=4;overflow=hidden;rotatable=0;points=[[0,0.5],[1,0.5]];portConstraint=eastwest;" vertex="1" parent="e2qPV19CDPTr4Dl-JJZj-1">
          <mxGeometry y="26" width="160" height="26" as="geometry" />
        </mxCell>
        <mxCell id="e2qPV19CDPTr4Dl-JJZj-6" value="+ address: string" style="text;strokeColor=none;fillColor=none;align=left;verticalAlign=top;spacingLeft=4;spacingRight=4;overflow=hidden;rotatable=0;points=[[0,0.5],[1,0.5]];portConstraint=eastwest;" vertex="1" parent="e2qPV19CDPTr4Dl-JJZj-1">
          <mxGeometry y="52" width="160" height="26" as="geometry" />
        </mxCell>
        <mxCell id="e2qPV19CDPTr4Dl-JJZj-2" value="+ order: Object" style="text;strokeColor=none;fillColor=none;align=left;verticalAlign=top;spacingLeft=4;spacingRight=4;overflow=hidden;rotatable=0;points=[[0,0.5],[1,0.5]];portConstraint=eastwest;" vertex="1" parent="e2qPV19CDPTr4Dl-JJZj-1">
          <mxGeometry y="78" width="160" height="26" as="geometry" />
        </mxCell>
        <mxCell id="e2qPV19CDPTr4Dl-JJZj-3" value="" style="line;strokeWidth=1;fillColor=none;align=left;verticalAlign=middle;spacingTop=-1;spacingLeft=3;spacingRight=3;rotatable=0;labelPosition=right;points=[];portConstraint=eastwest;" vertex="1" parent="e2qPV19CDPTr4Dl-JJZj-1">
          <mxGeometry y="104" width="160" height="8" as="geometry" />
        </mxCell>
        <mxCell id="e2qPV19CDPTr4Dl-JJZj-4" value="+ getAllOrder(): Array" style="text;strokeColor=none;fillColor=none;align=left;verticalAlign=top;spacingLeft=4;spacingRight=4;overflow=hidden;rotatable=0;points=[[0,0.5],[1,0.5]];portConstraint=eastwest;" vertex="1" parent="e2qPV19CDPTr4Dl-JJZj-1">
          <mxGeometry y="112" width="160" height="26" as="geometry" />
        </mxCell>
        <mxCell id="e2qPV19CDPTr4Dl-JJZj-7" value="Order" style="swimlane;fontStyle=1;align=center;verticalAlign=top;childLayout=stackLayout;horizontal=1;startSize=26;horizontalStack=0;resizeParent=1;resizeParentMax=0;resizeLast=0;collapsible=1;marginBottom=0;" vertex="1" parent="1">
          <mxGeometry x="425" y="112" width="185" height="190" as="geometry" />
        </mxCell>
        <mxCell id="e2qPV19CDPTr4Dl-JJZj-11" value="+ orderID: string" style="text;strokeColor=none;fillColor=none;align=left;verticalAlign=top;spacingLeft=4;spacingRight=4;overflow=hidden;rotatable=0;points=[[0,0.5],[1,0.5]];portConstraint=eastwest;" vertex="1" parent="e2qPV19CDPTr4Dl-JJZj-7">
          <mxGeometry y="26" width="185" height="26" as="geometry" />
        </mxCell>
        <mxCell id="e2qPV19CDPTr4Dl-JJZj-12" value="+ car_order: string" style="text;strokeColor=none;fillColor=none;align=left;verticalAlign=top;spacingLeft=4;spacingRight=4;overflow=hidden;rotatable=0;points=[[0,0.5],[1,0.5]];portConstraint=eastwest;" vertex="1" parent="e2qPV19CDPTr4Dl-JJZj-7">
          <mxGeometry y="52" width="185" height="26" as="geometry" />
        </mxCell>
        <mxCell id="e2qPV19CDPTr4Dl-JJZj-13" value="+ quantity: int" style="text;strokeColor=none;fillColor=none;align=left;verticalAlign=top;spacingLeft=4;spacingRight=4;overflow=hidden;rotatable=0;points=[[0,0.5],[1,0.5]];portConstraint=eastwest;" vertex="1" parent="e2qPV19CDPTr4Dl-JJZj-7">
          <mxGeometry y="78" width="185" height="26" as="geometry" />
        </mxCell>
        <mxCell id="e2qPV19CDPTr4Dl-JJZj-17" value="+ total_price: float" style="text;strokeColor=none;fillColor=none;align=left;verticalAlign=top;spacingLeft=4;spacingRight=4;overflow=hidden;rotatable=0;points=[[0,0.5],[1,0.5]];portConstraint=eastwest;" vertex="1" parent="e2qPV19CDPTr4Dl-JJZj-7">
          <mxGeometry y="104" width="185" height="26" as="geometry" />
        </mxCell>
        <mxCell id="e2qPV19CDPTr4Dl-JJZj-8" value="+ status: string" style="text;strokeColor=none;fillColor=none;align=left;verticalAlign=top;spacingLeft=4;spacingRight=4;overflow=hidden;rotatable=0;points=[[0,0.5],[1,0.5]];portConstraint=eastwest;" vertex="1" parent="e2qPV19CDPTr4Dl-JJZj-7">
          <mxGeometry y="130" width="185" height="26" as="geometry" />
        </mxCell>
        <mxCell id="e2qPV19CDPTr4Dl-JJZj-9" value="" style="line;strokeWidth=1;fillColor=none;align=left;verticalAlign=middle;spacingTop=-1;spacingLeft=3;spacingRight=3;rotatable=0;labelPosition=right;points=[];portConstraint=eastwest;" vertex="1" parent="e2qPV19CDPTr4Dl-JJZj-7">
          <mxGeometry y="156" width="185" height="8" as="geometry" />
        </mxCell>
        <mxCell id="e2qPV19CDPTr4Dl-JJZj-16" value="+ setStatus(string status): string" style="text;strokeColor=none;fillColor=none;align=left;verticalAlign=top;spacingLeft=4;spacingRight=4;overflow=hidden;rotatable=0;points=[[0,0.5],[1,0.5]];portConstraint=eastwest;" vertex="1" parent="e2qPV19CDPTr4Dl-JJZj-7">
          <mxGeometry y="164" width="185" height="26" as="geometry" />
        </mxCell>
        <mxCell id="e2qPV19CDPTr4Dl-JJZj-15" value="" style="endArrow=classic;html=1;rounded=0;" edge="1" parent="1" source="e2qPV19CDPTr4Dl-JJZj-2" target="e2qPV19CDPTr4Dl-JJZj-7">
          <mxGeometry width="50" height="50" relative="1" as="geometry">
            <mxPoint x="400" y="300" as="sourcePoint" />
            <mxPoint x="450" y="250" as="targetPoint" />
          </mxGeometry>
        </mxCell>
      </root>
    </mxGraphModel>
  </diagram>
  <diagram id="bOOQzto0iaFVg4XxY0Lc" name="Page-3">
    <mxGraphModel dx="2580" dy="898" grid="1" gridSize="10" guides="1" tooltips="1" connect="1" arrows="1" fold="1" page="1" pageScale="1" pageWidth="850" pageHeight="1100" math="0" shadow="0">
      <root>
        <mxCell id="0" />
        <mxCell id="1" parent="0" />
        <mxCell id="9liolh8Uok35-2TA1yFo-2" value="" style="group" vertex="1" connectable="0" parent="1">
          <mxGeometry x="-30" y="10" width="645" height="710" as="geometry" />
        </mxCell>
        <mxCell id="9liolh8Uok35-2TA1yFo-1" value="" style="rounded=0;whiteSpace=wrap;html=1;" vertex="1" parent="9liolh8Uok35-2TA1yFo-2">
          <mxGeometry width="645" height="710" as="geometry" />
        </mxCell>
        <mxCell id="N6kwi_HXOzuMrGhJkQHu-7" value="" style="strokeWidth=2;html=1;shape=mxgraph.flowchart.annotation_1;align=left;pointerEvents=1;rotation=90;" vertex="1" parent="9liolh8Uok35-2TA1yFo-2">
          <mxGeometry x="372.5" y="130" width="50" height="100" as="geometry" />
        </mxCell>
        <mxCell id="N6kwi_HXOzuMrGhJkQHu-8" value="receive an order" style="whiteSpace=wrap;html=1;align=center;strokeWidth=2;" vertex="1" parent="9liolh8Uok35-2TA1yFo-2">
          <mxGeometry x="330" y="20" width="135" height="60" as="geometry" />
        </mxCell>
        <mxCell id="N6kwi_HXOzuMrGhJkQHu-9" value="" style="edgeStyle=orthogonalEdgeStyle;rounded=0;orthogonalLoop=1;jettySize=auto;html=1;" edge="1" parent="9liolh8Uok35-2TA1yFo-2" source="N6kwi_HXOzuMrGhJkQHu-7" target="N6kwi_HXOzuMrGhJkQHu-8">
          <mxGeometry relative="1" as="geometry" />
        </mxCell>
        <mxCell id="N6kwi_HXOzuMrGhJkQHu-13" value="send invoice to buyer" style="whiteSpace=wrap;html=1;align=left;strokeWidth=2;" vertex="1" parent="9liolh8Uok35-2TA1yFo-2">
          <mxGeometry x="480" y="290" width="120" height="60" as="geometry" />
        </mxCell>
        <mxCell id="N6kwi_HXOzuMrGhJkQHu-14" value="" style="edgeStyle=orthogonalEdgeStyle;rounded=0;orthogonalLoop=1;jettySize=auto;html=1;exitX=1;exitY=0;exitDx=0;exitDy=0;exitPerimeter=0;" edge="1" parent="9liolh8Uok35-2TA1yFo-2" source="N6kwi_HXOzuMrGhJkQHu-7" target="N6kwi_HXOzuMrGhJkQHu-13">
          <mxGeometry relative="1" as="geometry" />
        </mxCell>
        <mxCell id="N6kwi_HXOzuMrGhJkQHu-15" value="store order to db" style="whiteSpace=wrap;html=1;align=center;strokeWidth=2;" vertex="1" parent="9liolh8Uok35-2TA1yFo-2">
          <mxGeometry x="210" y="290" width="120" height="60" as="geometry" />
        </mxCell>
        <mxCell id="N6kwi_HXOzuMrGhJkQHu-16" value="" style="endArrow=classic;html=1;rounded=0;exitX=1;exitY=1;exitDx=0;exitDy=0;exitPerimeter=0;" edge="1" parent="9liolh8Uok35-2TA1yFo-2" source="N6kwi_HXOzuMrGhJkQHu-7" target="N6kwi_HXOzuMrGhJkQHu-15">
          <mxGeometry width="50" height="50" relative="1" as="geometry">
            <mxPoint x="360" y="210" as="sourcePoint" />
            <mxPoint x="410" y="160" as="targetPoint" />
            <Array as="points">
              <mxPoint x="348" y="250" />
              <mxPoint x="270" y="250" />
            </Array>
          </mxGeometry>
        </mxCell>
        <mxCell id="N6kwi_HXOzuMrGhJkQHu-17" value="" style="shape=cylinder3;whiteSpace=wrap;html=1;boundedLbl=1;backgroundOutline=1;size=15;" vertex="1" parent="9liolh8Uok35-2TA1yFo-2">
          <mxGeometry x="100" y="280" width="60" height="80" as="geometry" />
        </mxCell>
        <mxCell id="N6kwi_HXOzuMrGhJkQHu-18" value="" style="endArrow=classic;html=1;rounded=0;exitX=0;exitY=0.5;exitDx=0;exitDy=0;" edge="1" parent="9liolh8Uok35-2TA1yFo-2" source="N6kwi_HXOzuMrGhJkQHu-15" target="N6kwi_HXOzuMrGhJkQHu-17">
          <mxGeometry width="50" height="50" relative="1" as="geometry">
            <mxPoint x="360" y="210" as="sourcePoint" />
            <mxPoint x="410" y="160" as="targetPoint" />
          </mxGeometry>
        </mxCell>
        <mxCell id="N6kwi_HXOzuMrGhJkQHu-20" value="is the product ready" style="rhombus;whiteSpace=wrap;html=1;strokeWidth=2;" vertex="1" parent="9liolh8Uok35-2TA1yFo-2">
          <mxGeometry x="220" y="420" width="100" height="120" as="geometry" />
        </mxCell>
        <mxCell id="N6kwi_HXOzuMrGhJkQHu-21" value="" style="edgeStyle=orthogonalEdgeStyle;rounded=0;orthogonalLoop=1;jettySize=auto;html=1;" edge="1" parent="9liolh8Uok35-2TA1yFo-2" source="N6kwi_HXOzuMrGhJkQHu-15" target="N6kwi_HXOzuMrGhJkQHu-20">
          <mxGeometry relative="1" as="geometry" />
        </mxCell>
        <mxCell id="N6kwi_HXOzuMrGhJkQHu-22" value="wait for the indent" style="whiteSpace=wrap;html=1;strokeWidth=2;" vertex="1" parent="9liolh8Uok35-2TA1yFo-2">
          <mxGeometry x="30" y="450" width="120" height="60" as="geometry" />
        </mxCell>
        <mxCell id="N6kwi_HXOzuMrGhJkQHu-23" value="" style="edgeStyle=orthogonalEdgeStyle;rounded=0;orthogonalLoop=1;jettySize=auto;html=1;" edge="1" parent="9liolh8Uok35-2TA1yFo-2" source="N6kwi_HXOzuMrGhJkQHu-20" target="N6kwi_HXOzuMrGhJkQHu-22">
          <mxGeometry relative="1" as="geometry" />
        </mxCell>
        <mxCell id="N6kwi_HXOzuMrGhJkQHu-24" value="no" style="text;html=1;align=center;verticalAlign=middle;resizable=0;points=[];autosize=1;strokeColor=none;fillColor=none;" vertex="1" parent="9liolh8Uok35-2TA1yFo-2">
          <mxGeometry x="175" y="460" width="30" height="20" as="geometry" />
        </mxCell>
        <mxCell id="N6kwi_HXOzuMrGhJkQHu-25" value="ship the product" style="whiteSpace=wrap;html=1;strokeWidth=2;" vertex="1" parent="9liolh8Uok35-2TA1yFo-2">
          <mxGeometry x="210" y="610" width="120" height="60" as="geometry" />
        </mxCell>
        <mxCell id="N6kwi_HXOzuMrGhJkQHu-26" value="" style="edgeStyle=orthogonalEdgeStyle;rounded=0;orthogonalLoop=1;jettySize=auto;html=1;" edge="1" parent="9liolh8Uok35-2TA1yFo-2" source="N6kwi_HXOzuMrGhJkQHu-20" target="N6kwi_HXOzuMrGhJkQHu-25">
          <mxGeometry relative="1" as="geometry" />
        </mxCell>
        <mxCell id="N6kwi_HXOzuMrGhJkQHu-27" value="yes" style="text;html=1;align=center;verticalAlign=middle;resizable=0;points=[];autosize=1;strokeColor=none;fillColor=none;" vertex="1" parent="9liolh8Uok35-2TA1yFo-2">
          <mxGeometry x="265" y="570" width="30" height="20" as="geometry" />
        </mxCell>
        <mxCell id="N6kwi_HXOzuMrGhJkQHu-28" value="receive payment" style="whiteSpace=wrap;html=1;align=center;strokeWidth=2;" vertex="1" parent="9liolh8Uok35-2TA1yFo-2">
          <mxGeometry x="480" y="430" width="120" height="60" as="geometry" />
        </mxCell>
        <mxCell id="N6kwi_HXOzuMrGhJkQHu-29" value="" style="edgeStyle=orthogonalEdgeStyle;rounded=0;orthogonalLoop=1;jettySize=auto;html=1;" edge="1" parent="9liolh8Uok35-2TA1yFo-2" source="N6kwi_HXOzuMrGhJkQHu-13" target="N6kwi_HXOzuMrGhJkQHu-28">
          <mxGeometry relative="1" as="geometry" />
        </mxCell>
      </root>
    </mxGraphModel>
  </diagram>
  <diagram id="okHUnTXPrkC09fn8ATu-" name="Page-4">
    <mxGraphModel dx="1483" dy="770" grid="1" gridSize="10" guides="1" tooltips="1" connect="1" arrows="1" fold="1" page="1" pageScale="1" pageWidth="850" pageHeight="1100" math="0" shadow="0">
      <root>
        <mxCell id="0" />
        <mxCell id="1" parent="0" />
        <mxCell id="u0qraEib75OjBvDpGd83-31" value="" style="rounded=0;whiteSpace=wrap;html=1;" vertex="1" parent="1">
          <mxGeometry x="110" y="120" width="660" height="420" as="geometry" />
        </mxCell>
        <mxCell id="u0qraEib75OjBvDpGd83-26" style="edgeStyle=orthogonalEdgeStyle;rounded=0;orthogonalLoop=1;jettySize=auto;html=1;entryX=0;entryY=0.25;entryDx=0;entryDy=0;" edge="1" parent="1" source="u0qraEib75OjBvDpGd83-1" target="u0qraEib75OjBvDpGd83-19">
          <mxGeometry relative="1" as="geometry" />
        </mxCell>
        <mxCell id="u0qraEib75OjBvDpGd83-1" value="" style="points=[];aspect=fixed;html=1;align=center;shadow=0;dashed=0;image;image=img/lib/allied_telesis/computer_and_terminals/Personal_Computer.svg;" vertex="1" parent="1">
          <mxGeometry x="320" y="200" width="45.6" height="61.800000000000004" as="geometry" />
        </mxCell>
        <mxCell id="u0qraEib75OjBvDpGd83-7" style="edgeStyle=orthogonalEdgeStyle;rounded=0;orthogonalLoop=1;jettySize=auto;html=1;exitX=0.5;exitY=0.5;exitDx=0;exitDy=0;exitPerimeter=0;" edge="1" parent="1" source="u0qraEib75OjBvDpGd83-2" target="u0qraEib75OjBvDpGd83-1">
          <mxGeometry relative="1" as="geometry" />
        </mxCell>
        <mxCell id="u0qraEib75OjBvDpGd83-2" value="Seller" style="shape=umlActor;verticalLabelPosition=bottom;verticalAlign=top;html=1;outlineConnect=0;" vertex="1" parent="1">
          <mxGeometry x="160" y="200" width="30" height="60" as="geometry" />
        </mxCell>
        <mxCell id="u0qraEib75OjBvDpGd83-8" value="Seller Web Interface" style="text;html=1;align=center;verticalAlign=middle;resizable=0;points=[];autosize=1;strokeColor=none;fillColor=none;" vertex="1" parent="1">
          <mxGeometry x="282.8" y="270" width="120" height="20" as="geometry" />
        </mxCell>
        <mxCell id="u0qraEib75OjBvDpGd83-17" style="edgeStyle=orthogonalEdgeStyle;rounded=0;orthogonalLoop=1;jettySize=auto;html=1;exitX=0.5;exitY=0.5;exitDx=0;exitDy=0;exitPerimeter=0;" edge="1" parent="1" source="u0qraEib75OjBvDpGd83-11" target="u0qraEib75OjBvDpGd83-16">
          <mxGeometry relative="1" as="geometry" />
        </mxCell>
        <mxCell id="u0qraEib75OjBvDpGd83-11" value="User" style="shape=umlActor;verticalLabelPosition=bottom;verticalAlign=top;html=1;outlineConnect=0;" vertex="1" parent="1">
          <mxGeometry x="160" y="340" width="30" height="60" as="geometry" />
        </mxCell>
        <mxCell id="u0qraEib75OjBvDpGd83-24" style="edgeStyle=orthogonalEdgeStyle;rounded=0;orthogonalLoop=1;jettySize=auto;html=1;entryX=0;entryY=0.75;entryDx=0;entryDy=0;" edge="1" parent="1" source="u0qraEib75OjBvDpGd83-16" target="u0qraEib75OjBvDpGd83-19">
          <mxGeometry relative="1" as="geometry" />
        </mxCell>
        <mxCell id="u0qraEib75OjBvDpGd83-16" value="" style="points=[];aspect=fixed;html=1;align=center;shadow=0;dashed=0;image;image=img/lib/allied_telesis/computer_and_terminals/Personal_Computer.svg;" vertex="1" parent="1">
          <mxGeometry x="320" y="340" width="45.6" height="61.800000000000004" as="geometry" />
        </mxCell>
        <mxCell id="u0qraEib75OjBvDpGd83-18" value="User Web Interface" style="text;html=1;align=center;verticalAlign=middle;resizable=0;points=[];autosize=1;strokeColor=none;fillColor=none;" vertex="1" parent="1">
          <mxGeometry x="282.8" y="400" width="120" height="20" as="geometry" />
        </mxCell>
        <mxCell id="u0qraEib75OjBvDpGd83-19" value="" style="image;html=1;image=img/lib/clip_art/computers/Server_Tower_128x128.png" vertex="1" parent="1">
          <mxGeometry x="490" y="260" width="80" height="80" as="geometry" />
        </mxCell>
        <mxCell id="u0qraEib75OjBvDpGd83-27" value="Server" style="text;html=1;align=center;verticalAlign=middle;resizable=0;points=[];autosize=1;strokeColor=none;fillColor=none;" vertex="1" parent="1">
          <mxGeometry x="505" y="350" width="50" height="20" as="geometry" />
        </mxCell>
        <mxCell id="u0qraEib75OjBvDpGd83-30" style="edgeStyle=orthogonalEdgeStyle;rounded=0;orthogonalLoop=1;jettySize=auto;html=1;exitX=0.5;exitY=0;exitDx=0;exitDy=0;exitPerimeter=0;entryX=1;entryY=0.5;entryDx=0;entryDy=0;" edge="1" parent="1" source="u0qraEib75OjBvDpGd83-28" target="u0qraEib75OjBvDpGd83-19">
          <mxGeometry relative="1" as="geometry" />
        </mxCell>
        <mxCell id="u0qraEib75OjBvDpGd83-28" value="" style="shape=cylinder3;whiteSpace=wrap;html=1;boundedLbl=1;backgroundOutline=1;size=15;" vertex="1" parent="1">
          <mxGeometry x="670" y="360" width="60" height="80" as="geometry" />
        </mxCell>
        <mxCell id="u0qraEib75OjBvDpGd83-29" value="Database" style="text;html=1;align=center;verticalAlign=middle;resizable=0;points=[];autosize=1;strokeColor=none;fillColor=none;" vertex="1" parent="1">
          <mxGeometry x="665" y="450" width="70" height="20" as="geometry" />
        </mxCell>
      </root>
    </mxGraphModel>
  </diagram>
</mxfile>
